<?xml version="1.0" encoding="UTF-8"?>
<svg version="1.1" xmlns="http://www.w3.org/2000/svg" width="500" height="500">
<path d="M0 0 C1.26481201 -0.00630432 2.52962402 -0.01260864 3.83276367 -0.019104 C5.20491679 -0.01552398 6.57706863 -0.01142196 7.94921875 -0.00683594 C9.36499091 -0.0081843 10.78076262 -0.01012626 12.1965332 -0.01263428 C15.1587364 -0.01557748 18.1208187 -0.01131386 21.08300781 -0.00195312 C24.87258021 0.00944103 28.66186926 0.00287724 32.45143127 -0.00909805 C35.37343465 -0.01633842 38.29537128 -0.01401875 41.21737671 -0.00884247 C42.61437005 -0.00751199 44.01136954 -0.00913254 45.40835571 -0.01380157 C47.36338173 -0.01890234 49.31842911 -0.00974453 51.2734375 0 C52.93959106 0.00238678 52.93959106 0.00238678 54.6394043 0.00482178 C57.71133094 0.26511107 59.88949406 0.88156091 62.63671875 2.25878906 C63.7800293 3.95336914 63.7800293 3.95336914 64.5234375 6.02832031 C64.81669922 6.81964355 65.10996094 7.6109668 65.41210938 8.42626953 C65.71310547 9.29912598 66.01410156 10.17198242 66.32421875 11.07128906 C66.65744141 11.99055176 66.99066406 12.90981445 67.33398438 13.85693359 C68.45805164 16.98318122 69.54972667 20.11946678 70.63671875 23.25878906 C71.23540771 24.97219482 71.23540771 24.97219482 71.84619141 26.72021484 C74.40972555 34.06366157 76.93665641 41.41925095 79.44921875 48.78027344 C84.47015307 63.48797742 89.67175575 78.10585994 95.12133789 92.66064453 C97.8703523 100.05113806 100.39004783 107.45649313 102.6015625 115.02441406 C103.50417472 117.84465148 104.59300744 120.47803053 105.78686523 123.18310547 C107.67760444 127.80104995 109.14454076 132.58226134 110.69921875 137.32128906 C111.22612305 138.91553711 111.22612305 138.91553711 111.76367188 140.54199219 C112.41814503 142.52273232 113.07137625 144.5038836 113.72290039 146.4855957 C114.68730558 149.41230651 115.66164455 152.33561781 116.63671875 155.25878906 C116.63449814 154.4333963 116.63227753 153.60800354 116.62998962 152.75759888 C116.53123543 114.11552713 116.53390928 75.47751501 117.04243851 36.83803558 C117.07429502 34.37789932 117.10423821 31.91774588 117.13375854 29.45758057 C117.18048656 25.60625966 117.23266495 21.75505295 117.28959656 17.90386963 C117.30990775 16.49058163 117.32867152 15.07727046 117.34580994 13.66394043 C117.36960987 11.74643612 117.40029435 9.82902086 117.43139648 7.91162109 C117.44694077 6.83751984 117.46248505 5.76341858 117.47850037 4.6567688 C117.63671875 2.25878906 117.63671875 2.25878906 118.63671875 1.25878906 C120.83996849 1.15918754 123.04645365 1.13079149 125.25195312 1.12939453 C125.94299637 1.12764221 126.63403961 1.12588989 127.34602356 1.12408447 C129.64086382 1.11966652 131.93562764 1.12260373 134.23046875 1.12597656 C135.8184816 1.12530351 137.40649434 1.12433347 138.99450684 1.12307739 C142.32691425 1.1216005 145.65929491 1.1237547 148.99169922 1.12841797 C153.27270385 1.13411526 157.5536458 1.13083621 161.83464813 1.1248455 C165.11505611 1.12123966 168.39544912 1.12237858 171.67585754 1.1249733 C173.25478625 1.1256425 174.83371629 1.12481436 176.41264343 1.12249374 C178.61562728 1.11996684 180.81850824 1.12380831 183.02148438 1.12939453 C184.90559021 1.13058792 184.90559021 1.13058792 186.82775879 1.13180542 C189.63671875 1.25878906 189.63671875 1.25878906 190.63671875 2.25878906 C191.96222214 10.71959399 191.78093404 19.34873024 191.77043152 27.88671875 C191.77230314 29.3418798 191.77460524 30.79704036 191.77729684 32.25220013 C191.78337689 36.22351366 191.78328578 40.19480603 191.78210247 44.16612315 C191.78189752 48.45914578 191.78742585 52.75216178 191.79216003 57.04518127 C191.80044406 65.44216319 191.80321377 73.83913808 191.80377241 82.23612374 C191.80424822 89.05791936 191.80630619 95.87971268 191.80947304 102.70150757 C191.81827004 122.04479458 191.82289339 141.38807606 191.82214256 160.73136508 C191.82210261 161.77279293 191.82206265 162.81422077 191.82202148 163.88720703 C191.8219806 164.92990537 191.82193972 165.9726037 191.8218976 167.04689896 C191.82149042 183.97678199 191.83108068 200.90664286 191.84515985 217.83651948 C191.85950412 235.22212457 191.86643125 252.60771884 191.86556607 269.99333 C191.86523364 279.75357882 191.86800146 289.51380435 191.87874413 299.27404785 C191.88782303 307.5755512 191.89004563 315.87702067 191.8832347 324.17852682 C191.87995749 328.41585621 191.87995605 332.6531205 191.88858795 336.8904438 C191.89640012 340.76498754 191.89507626 344.63941395 191.88630382 348.51395464 C191.8847572 349.91945778 191.88662823 351.32496946 191.8921639 352.73046255 C191.89916493 354.63318838 191.89276913 356.53594969 191.88560772 358.43867493 C191.88593377 360.02740402 191.88593377 360.02740402 191.88626641 361.64822865 C191.63671875 364.25878906 191.63671875 364.25878906 189.63671875 367.25878906 C181.01077898 367.9281891 172.35038987 366.57790215 163.78103638 365.60638428 C145.65065021 363.5377412 145.65065021 363.5377412 127.43408203 362.5871582 C118.80141218 362.35859257 118.80141218 362.35859257 114.63671875 360.25878906 C112.6105585 356.9040192 111.5450795 353.29932702 110.38671875 349.57128906 C109.62316728 347.2884788 108.85880697 345.00593896 108.09375 342.72363281 C107.69752441 341.51046387 107.30129883 340.29729492 106.89306641 339.04736328 C104.95394934 333.19986647 102.86345868 327.40829535 100.78219604 321.61022949 C99.60556608 318.3254645 98.44073877 315.03654227 97.27734375 311.74707031 C96.93925941 310.79119522 96.93925941 310.79119522 96.59434509 309.81600952 C94.1442983 302.87884724 91.7428603 295.92497782 89.33911133 288.97167969 C87.33852792 283.20835162 85.23723608 277.49757843 83.06079102 271.79833984 C79.625242 262.70444047 76.54381272 253.48193183 73.39453125 244.28613281 C69.84663418 233.93051873 66.23838374 223.59579816 62.63671875 213.25878906 C62.63893936 213.9647673 62.64115997 214.67074554 62.64344788 215.39811707 C62.67133258 224.74749824 62.68884018 234.09687379 62.69921875 243.44628906 C62.70007477 244.21178322 62.70093079 244.97727737 62.70181274 245.76596832 C62.72817 272.55855789 62.50903357 299.34389268 62.13671875 326.13378906 C62.12476093 326.99461971 62.11280312 327.85545036 62.10048294 328.74236679 C61.9538312 339.24796289 61.79935946 349.75342786 61.63671875 360.25878906 C56.69061607 362.02037871 52.34905487 362.53393388 47.13671875 362.63378906 C34.59323914 363.03386471 22.16421268 364.49174196 9.70117188 365.88720703 C8.89255707 365.97654007 8.08394226 366.06587311 7.25082397 366.15791321 C5.72911795 366.32648909 4.20778019 366.49843922 2.68692017 366.67448425 C-1.684904 367.15940618 -5.97114785 367.59783941 -10.36328125 367.25878906 C-12.66992022 363.79883061 -12.61300702 362.51610967 -12.61217022 358.43867493 C-12.61676902 357.21681362 -12.62136781 355.99495232 -12.62610596 354.73606491 C-12.62109042 353.37295211 -12.61588815 352.00983998 -12.61051941 350.64672852 C-12.6121068 349.20417285 -12.6145697 347.76161793 -12.61783582 346.31906509 C-12.62426762 342.34509149 -12.61816696 338.37121929 -12.61007154 334.39725232 C-12.60350785 330.11484269 -12.60844025 325.83244464 -12.61195374 321.55003357 C-12.61700319 313.15460431 -12.6113439 304.75921435 -12.60210343 296.36378998 C-12.59172815 286.58604506 -12.59178943 276.80830869 -12.59227601 267.0305593 C-12.59277706 249.57814452 -12.58360552 232.12574802 -12.5690918 214.67333984 C-12.55502088 197.74462551 -12.54792027 180.81592729 -12.54858398 163.88720703 C-12.54862394 162.84577919 -12.5486639 161.80435135 -12.54870506 160.73136508 C-12.54874542 159.69172961 -12.54878577 158.65209413 -12.54882735 157.58095455 C-12.54951803 138.31025718 -12.54362008 119.03956664 -12.53467413 99.76887149 C-12.5316616 92.95721171 -12.530595 86.14555319 -12.53014183 79.33389282 C-12.52945821 71.02364572 -12.52497324 62.71341013 -12.51580902 54.4031679 C-12.51120489 50.16492264 -12.50814038 45.92669207 -12.50940323 41.68844414 C-12.51050467 37.80332068 -12.50694099 33.9182296 -12.4997547 30.03311288 C-12.49795339 28.6326135 -12.49779925 27.23211075 -12.49952199 25.83161128 C-12.5081773 17.9144152 -12.25366968 10.12895865 -11.36328125 2.25878906 C-7.35346524 0.55246172 -4.37887795 0.00627278 0 0 Z " fill="#E40811" transform="translate(160.36328125,65.7412109375)"/>
<path d="M0 0 C1.26481201 -0.00630432 2.52962402 -0.01260864 3.83276367 -0.019104 C5.20491679 -0.01552398 6.57706863 -0.01142196 7.94921875 -0.00683594 C9.36499091 -0.0081843 10.78076262 -0.01012626 12.1965332 -0.01263428 C15.1587364 -0.01557748 18.1208187 -0.01131386 21.08300781 -0.00195312 C24.87258021 0.00944103 28.66186926 0.00287724 32.45143127 -0.00909805 C35.37343465 -0.01633842 38.29537128 -0.01401875 41.21737671 -0.00884247 C42.61437005 -0.00751199 44.01136954 -0.00913254 45.40835571 -0.01380157 C47.36338173 -0.01890234 49.31842911 -0.00974453 51.2734375 0 C52.93959106 0.00238678 52.93959106 0.00238678 54.6394043 0.00482178 C57.71133094 0.26511107 59.88949406 0.88156091 62.63671875 2.25878906 C63.7800293 3.95336914 63.7800293 3.95336914 64.5234375 6.02832031 C64.81669922 6.81964355 65.10996094 7.6109668 65.41210938 8.42626953 C65.71310547 9.29912598 66.01410156 10.17198242 66.32421875 11.07128906 C66.65744141 11.99055176 66.99066406 12.90981445 67.33398438 13.85693359 C68.45805164 16.98318122 69.54972667 20.11946678 70.63671875 23.25878906 C71.23540771 24.97219482 71.23540771 24.97219482 71.84619141 26.72021484 C74.40972555 34.06366157 76.93665641 41.41925095 79.44921875 48.78027344 C84.47015307 63.48797742 89.67175575 78.10585994 95.12133789 92.66064453 C97.8703523 100.05113806 100.39004783 107.45649313 102.6015625 115.02441406 C103.38893291 117.4845752 104.24169633 119.61147393 105.328125 121.93066406 C106.63671875 125.25878906 106.63671875 125.25878906 106.32421875 127.69628906 C106.09734375 128.21191406 105.87046875 128.72753906 105.63671875 129.25878906 C104.50394607 127.07502141 103.38049086 124.88721778 102.26171875 122.69628906 C101.94460938 122.08720703 101.6275 121.478125 101.30078125 120.85058594 C99.21111813 116.73656167 97.84395924 112.73142894 96.63671875 108.25878906 C96.06878056 106.90962586 95.46788402 105.57350962 94.82421875 104.25878906 C90.16888529 94.06221912 87.13332188 83.15859296 84.63671875 72.25878906 C83.97671875 72.25878906 83.31671875 72.25878906 82.63671875 72.25878906 C81.67523789 69.37434647 81.47727063 67.26735179 81.32421875 64.25878906 C80.89945978 59.00848966 79.54853837 54.62981532 77.57421875 49.76660156 C76.641265 47.27095027 76.08772916 44.88028709 75.63671875 42.25878906 C74.97671875 42.25878906 74.31671875 42.25878906 73.63671875 42.25878906 C73.63671875 41.59878906 73.63671875 40.93878906 73.63671875 40.25878906 C72.97671875 40.25878906 72.31671875 40.25878906 71.63671875 40.25878906 C70.40409593 37.35332098 69.45242186 34.56767571 68.63671875 31.50878906 C68.30671875 30.43628906 67.97671875 29.36378906 67.63671875 28.25878906 C66.97671875 27.92878906 66.31671875 27.59878906 65.63671875 27.25878906 C65.07724476 25.23765267 64.61365354 23.18957292 64.19921875 21.13378906 C63.37936996 17.31479955 62.59538966 13.74487448 60.94921875 10.19628906 C59.63671875 7.25878906 59.63671875 7.25878906 59.63671875 3.25878906 C37.19671875 3.58878906 14.75671875 3.91878906 -8.36328125 4.25878906 C-7.69675879 7.59140134 -7.12006795 10.18947393 -5.9453125 13.27050781 C-5.66357178 14.01905029 -5.38183105 14.76759277 -5.09155273 15.53881836 C-4.63824585 16.73051636 -4.63824585 16.73051636 -4.17578125 17.94628906 C-1.75279205 24.40738581 0.55536053 30.88729978 2.69921875 37.44628906 C4.76854132 43.76529694 7.00500113 49.99307421 9.38037109 56.20288086 C11.60674307 62.06955351 13.60037151 68.00433086 15.54492188 73.96972656 C16.7110991 77.53685691 17.93532132 81.04828198 19.3125 84.54003906 C20.63671875 88.25878906 20.63671875 88.25878906 20.63671875 92.25878906 C21.29671875 92.25878906 21.95671875 92.25878906 22.63671875 92.25878906 C22.81847656 92.9484375 23.00023437 93.63808594 23.1875 94.34863281 C24.80593447 100.39908784 26.56546856 106.34882184 28.63671875 112.25878906 C29.01957031 113.35449219 29.40242188 114.45019531 29.796875 115.57910156 C31.6496983 120.82593451 33.51827616 126.05027468 35.63671875 131.19628906 C37.82534475 136.55709364 39.60119133 142.04460966 41.390625 147.54785156 C42.47206739 150.76844802 43.63094776 153.9368218 44.83569336 157.11181641 C46.6551416 161.98844786 48.32515069 166.91977196 50.03125 171.83691406 C50.32386719 172.67738281 50.61648437 173.51785156 50.91796875 174.38378906 C51.20285156 175.20234375 51.48773438 176.02089844 51.78125 176.86425781 C52.60081301 179.15828578 53.47159095 181.42642449 54.35546875 183.69628906 C55.63671875 187.25878906 55.63671875 187.25878906 55.63671875 190.25878906 C56.29671875 190.25878906 56.95671875 190.25878906 57.63671875 190.25878906 C57.89066406 191.15339844 58.14460938 192.04800781 58.40625 192.96972656 C60.43086719 200.08242666 62.48479171 207.1835138 64.63671875 214.25878906 C65.29671875 214.25878906 65.95671875 214.25878906 66.63671875 214.25878906 C66.96671875 216.89878906 67.29671875 219.53878906 67.63671875 222.25878906 C68.29671875 222.25878906 68.95671875 222.25878906 69.63671875 222.25878906 C69.83007812 222.92265625 70.0234375 223.58652344 70.22265625 224.27050781 C71.77400115 229.6106438 71.77400115 229.6106438 73.69921875 234.82128906 C74.86932564 237.86356698 75.46432525 240.93239482 76.12890625 244.11816406 C76.61218741 246.40124705 76.61218741 246.40124705 77.76171875 249.00878906 C78.75457933 251.56185913 78.79189965 253.54312325 78.63671875 256.25878906 C76.34862622 253.97069653 75.88982708 252.46772141 74.90234375 249.41113281 C74.41121094 247.91163086 74.41121094 247.91163086 73.91015625 246.38183594 C73.40355469 244.80499023 73.40355469 244.80499023 72.88671875 243.19628906 C69.62950911 233.15756895 66.17911088 223.19964555 62.63671875 213.25878906 C62.63893936 213.9647673 62.64115997 214.67074554 62.64344788 215.39811707 C62.67133258 224.74749824 62.68884018 234.09687379 62.69921875 243.44628906 C62.70007477 244.21178322 62.70093079 244.97727737 62.70181274 245.76596832 C62.72817 272.55855789 62.50903357 299.34389268 62.13671875 326.13378906 C62.12476093 326.99461971 62.11280312 327.85545036 62.10048294 328.74236679 C61.9538312 339.24796289 61.79935946 349.75342786 61.63671875 360.25878906 C56.69061607 362.02037871 52.34905487 362.53393388 47.13671875 362.63378906 C34.59323914 363.03386471 22.16421268 364.49174196 9.70117188 365.88720703 C8.89255707 365.97654007 8.08394226 366.06587311 7.25082397 366.15791321 C5.72911795 366.32648909 4.20778019 366.49843922 2.68692017 366.67448425 C-1.684904 367.15940618 -5.97114785 367.59783941 -10.36328125 367.25878906 C-12.66992022 363.79883061 -12.61300702 362.51610967 -12.61217022 358.43867493 C-12.61676902 357.21681362 -12.62136781 355.99495232 -12.62610596 354.73606491 C-12.62109042 353.37295211 -12.61588815 352.00983998 -12.61051941 350.64672852 C-12.6121068 349.20417285 -12.6145697 347.76161793 -12.61783582 346.31906509 C-12.62426762 342.34509149 -12.61816696 338.37121929 -12.61007154 334.39725232 C-12.60350785 330.11484269 -12.60844025 325.83244464 -12.61195374 321.55003357 C-12.61700319 313.15460431 -12.6113439 304.75921435 -12.60210343 296.36378998 C-12.59172815 286.58604506 -12.59178943 276.80830869 -12.59227601 267.0305593 C-12.59277706 249.57814452 -12.58360552 232.12574802 -12.5690918 214.67333984 C-12.55502088 197.74462551 -12.54792027 180.81592729 -12.54858398 163.88720703 C-12.54862394 162.84577919 -12.5486639 161.80435135 -12.54870506 160.73136508 C-12.54874542 159.69172961 -12.54878577 158.65209413 -12.54882735 157.58095455 C-12.54951803 138.31025718 -12.54362008 119.03956664 -12.53467413 99.76887149 C-12.5316616 92.95721171 -12.530595 86.14555319 -12.53014183 79.33389282 C-12.52945821 71.02364572 -12.52497324 62.71341013 -12.51580902 54.4031679 C-12.51120489 50.16492264 -12.50814038 45.92669207 -12.50940323 41.68844414 C-12.51050467 37.80332068 -12.50694099 33.9182296 -12.4997547 30.03311288 C-12.49795339 28.6326135 -12.49779925 27.23211075 -12.49952199 25.83161128 C-12.5081773 17.9144152 -12.25366968 10.12895865 -11.36328125 2.25878906 C-7.35346524 0.55246172 -4.37887795 0.00627278 0 0 Z " fill="#B0030F" transform="translate(160.36328125,65.7412109375)"/>
<path d="M0 0 C0.69104324 -0.00175232 1.38208649 -0.00350464 2.09407043 -0.00531006 C4.3889107 -0.00972801 6.68367451 -0.0067908 8.97851562 -0.00341797 C10.56652847 -0.00409102 12.15454122 -0.00506106 13.74255371 -0.00631714 C17.07496112 -0.00779403 20.40734178 -0.00563983 23.73974609 -0.00097656 C28.02075073 0.00472073 32.30169268 0.00144168 36.58269501 -0.00454903 C39.86310299 -0.00815487 43.143496 -0.00701595 46.42390442 -0.00442123 C48.00283312 -0.00375203 49.58176317 -0.00458017 51.16069031 -0.00690079 C53.36367415 -0.0094277 55.56655511 -0.00558622 57.76953125 0 C59.65363708 0.00119339 59.65363708 0.00119339 61.57580566 0.00241089 C64.38476562 0.12939453 64.38476562 0.12939453 65.38476562 1.12939453 C66.71026902 9.59019946 66.52898092 18.21933571 66.51847839 26.75732422 C66.52035002 28.21248527 66.52265211 29.66764583 66.52534372 31.1228056 C66.53142376 35.09411913 66.53133266 39.0654115 66.53014934 43.03672862 C66.52994439 47.32975125 66.53547273 51.62276725 66.54020691 55.91578674 C66.54849094 64.31276866 66.55126065 72.70974355 66.55181929 81.10672921 C66.5522951 87.92852483 66.55435306 94.75031815 66.55751991 101.57211304 C66.56631691 120.91540005 66.57094027 140.25868153 66.57018944 159.60197055 C66.57014948 160.6433984 66.57010953 161.68482624 66.57006836 162.7578125 C66.57002748 163.80051084 66.5699866 164.84320917 66.56994448 165.91750443 C66.56953729 182.84738746 66.57912755 199.77724833 66.59320673 216.70712495 C66.60755099 234.09273004 66.61447813 251.47832431 66.61361295 268.86393547 C66.61328052 278.62418429 66.61604834 288.38440982 66.626791 298.14465332 C66.6358699 306.44615667 66.6380925 314.74762614 66.63128158 323.04913229 C66.62800437 327.28646168 66.62800292 331.52372597 66.63663483 335.76104927 C66.64444699 339.63559301 66.64312313 343.51001942 66.63435069 347.38456011 C66.63280407 348.79006325 66.6346751 350.19557493 66.64021077 351.60106802 C66.64721181 353.50379385 66.640816 355.40655516 66.63365459 357.3092804 C66.63387196 358.36843312 66.63408933 359.42758585 66.63431329 360.51883411 C66.38476562 363.12939453 66.38476562 363.12939453 64.38476562 366.12939453 C55.75856458 366.79881485 47.09811628 365.44834054 38.52853394 364.47671509 C25.66399121 363.02200161 12.85981553 361.70516904 -0.08789062 361.30517578 C-3.05833323 361.15714708 -5.73107342 360.8209185 -8.61523438 360.12939453 C-8.61523438 359.79939453 -8.61523438 359.46939453 -8.61523438 359.12939453 C15.36640969 358.56659193 39.76930135 359.82523944 63.38476562 364.12939453 C59.86777296 352.53080169 56.34921124 341.0535586 51.53320312 329.91845703 C50.34128333 327.02379466 49.35575687 324.10476128 48.38476562 321.12939453 C47.74538746 319.35622027 47.09962354 317.58533467 46.44726562 315.81689453 C45.24802989 312.53986208 44.08456177 309.26167907 43.00976562 305.94189453 C41.62214226 301.70319802 40.0354032 297.54586833 38.44726562 293.37939453 C36.17940287 287.41082064 34.14791167 281.41714571 32.34179688 275.28955078 C30.17153753 268.12326583 27.65997565 261.14422481 24.88476562 254.19189453 C22.70246255 248.66663314 20.7161427 243.19265812 19.12304688 237.46533203 C18.24257744 234.67950811 17.11120216 232.05891005 15.94726562 229.37939453 C14.07377202 225.01723032 12.63086612 220.71020122 11.38476562 216.12939453 C9.88268658 210.61573891 7.94202761 205.54113396 5.66601562 200.30908203 C4.22051668 196.72177673 3.06285304 193.07854144 1.94726562 189.37939453 C0.2309061 183.70083716 -1.64823364 178.11866755 -3.74023438 172.56689453 C-3.98185303 171.92461914 -4.22347168 171.28234375 -4.47241211 170.62060547 C-5.42044298 168.13449919 -6.36595249 165.66039532 -7.49707031 163.25097656 C-9.22152172 159.57012428 -9.63145964 157.9580073 -8.61523438 154.12939453 C-8.53240266 151.95348114 -8.50784316 149.77512391 -8.51757812 147.59765625 C-8.51973029 146.61709668 -8.51973029 146.61709668 -8.52192593 145.61672783 C-8.52569483 144.1874784 -8.53179041 142.75823368 -8.53991508 141.32900238 C-8.55302467 139.0076788 -8.55999113 136.6864048 -8.56544495 134.36505127 C-8.57383199 131.00379338 -8.58460598 127.64255577 -8.59719849 124.28131104 C-8.62938002 115.35048941 -8.63872227 106.41964347 -8.64257812 97.48876953 C-8.6430055 96.57263508 -8.64343288 95.65650063 -8.64387321 94.71260452 C-8.64840339 75.04336997 -8.47304058 55.37776075 -8.20996094 35.71042633 C-8.17766793 33.24933066 -8.14752096 30.78821681 -8.11791992 28.3270874 C-8.07118237 24.47605015 -8.01909806 20.62512499 -7.96229362 16.77422333 C-7.94202319 15.36104191 -7.9232865 13.94783758 -7.90616035 12.53461456 C-7.88235842 10.61708731 -7.8516665 8.69964918 -7.82055664 6.78222656 C-7.79724022 5.17107468 -7.79724022 5.17107468 -7.77345276 3.52737427 C-7.45367843 -1.3191697 -4.17162333 0.0026423 0 0 Z " fill="#B0030F" transform="translate(285.615234375,66.87060546875)"/>
<path d="M0 0 C0.69104324 -0.00175232 1.38208649 -0.00350464 2.09407043 -0.00531006 C4.3889107 -0.00972801 6.68367451 -0.0067908 8.97851562 -0.00341797 C10.56652847 -0.00409102 12.15454122 -0.00506106 13.74255371 -0.00631714 C17.07496112 -0.00779403 20.40734178 -0.00563983 23.73974609 -0.00097656 C28.02075073 0.00472073 32.30169268 0.00144168 36.58269501 -0.00454903 C39.86310299 -0.00815487 43.143496 -0.00701595 46.42390442 -0.00442123 C48.00283312 -0.00375203 49.58176317 -0.00458017 51.16069031 -0.00690079 C53.36367415 -0.0094277 55.56655511 -0.00558622 57.76953125 0 C59.65363708 0.00119339 59.65363708 0.00119339 61.57580566 0.00241089 C64.38476562 0.12939453 64.38476562 0.12939453 65.38476562 1.12939453 C66.71026902 9.59019946 66.52898092 18.21933571 66.51847839 26.75732422 C66.52035002 28.21248527 66.52265211 29.66764583 66.52534372 31.1228056 C66.53142376 35.09411913 66.53133266 39.0654115 66.53014934 43.03672862 C66.52994439 47.32975125 66.53547273 51.62276725 66.54020691 55.91578674 C66.54849094 64.31276866 66.55126065 72.70974355 66.55181929 81.10672921 C66.5522951 87.92852483 66.55435306 94.75031815 66.55751991 101.57211304 C66.56631691 120.91540005 66.57094027 140.25868153 66.57018944 159.60197055 C66.57014948 160.6433984 66.57010953 161.68482624 66.57006836 162.7578125 C66.57002748 163.80051084 66.5699866 164.84320917 66.56994448 165.91750443 C66.56953729 182.84738746 66.57912755 199.77724833 66.59320673 216.70712495 C66.60755099 234.09273004 66.61447813 251.47832431 66.61361295 268.86393547 C66.61328052 278.62418429 66.61604834 288.38440982 66.626791 298.14465332 C66.6358699 306.44615667 66.6380925 314.74762614 66.63128158 323.04913229 C66.62800437 327.28646168 66.62800292 331.52372597 66.63663483 335.76104927 C66.64444699 339.63559301 66.64312313 343.51001942 66.63435069 347.38456011 C66.63280407 348.79006325 66.6346751 350.19557493 66.64021077 351.60106802 C66.64721181 353.50379385 66.640816 355.40655516 66.63365459 357.3092804 C66.63387196 358.36843312 66.63408933 359.42758585 66.63431329 360.51883411 C66.38476562 363.12939453 66.38476562 363.12939453 64.38476562 366.12939453 C55.75856458 366.79881485 47.09811628 365.44834054 38.52853394 364.47671509 C25.66399121 363.02200161 12.85981553 361.70516904 -0.08789062 361.30517578 C-3.05833323 361.15714708 -5.73107342 360.8209185 -8.61523438 360.12939453 C-8.61523438 359.79939453 -8.61523438 359.46939453 -8.61523438 359.12939453 C15.36640969 358.56659193 39.76930135 359.82523944 63.38476562 364.12939453 C63.22198138 363.43207649 63.05919713 362.73475845 62.89148003 362.01630956 C62.34891774 358.92515757 62.26742864 356.07692077 62.27733517 352.93875408 C62.27882751 351.68522662 62.28031986 350.43169916 62.28185743 349.14018601 C62.2886393 347.75179735 62.29551519 346.36340914 62.30247498 344.97502136 C62.30616968 343.49815338 62.30941872 342.02128422 62.31226021 340.54441434 C62.32136108 336.4853263 62.33679138 332.42628309 62.35324299 328.36721909 C62.36987821 323.99031657 62.38066088 319.61339921 62.39215088 315.23648071 C62.41286144 307.65290743 62.43728796 300.06935339 62.46423149 292.48579979 C62.50318205 281.52122591 62.53653912 270.55664065 62.56852675 259.59204451 C62.62057545 241.80313007 62.6771539 224.01423303 62.73657227 206.2253418 C62.7942853 188.94409869 62.84987042 171.6628509 62.90258789 154.3815918 C62.90583761 153.31654799 62.90908733 152.25150419 62.91243552 151.15418633 C62.92872511 145.81122617 62.94497279 140.46826588 62.96119964 135.12530553 C63.09589245 90.79331282 63.23876584 46.46135173 63.38476562 2.12939453 C40.94476563 2.12939453 18.50476563 2.12939453 -4.61523438 2.12939453 C-4.57970459 6.86968018 -4.5441748 11.60996582 -4.50756836 16.49389648 C-4.39115569 32.12414312 -4.28027332 47.75442534 -4.17227077 63.38473225 C-4.10662798 72.86499031 -4.039072 82.34522759 -3.96704102 91.82543945 C-3.90427735 100.08658712 -3.84507383 108.34775124 -3.79017884 116.60895509 C-3.76097643 120.98480943 -3.72996868 125.36063446 -3.69470024 129.73644447 C-3.66158058 133.85262326 -3.63321068 137.9688071 -3.60852814 142.08504486 C-3.59861051 143.59798884 -3.586938 145.11092247 -3.57340431 146.62383842 C-3.55522258 148.68532824 -3.54328578 150.74676198 -3.53294373 152.80830383 C-3.52464759 153.96331044 -3.51635145 155.11831705 -3.50780392 156.30832386 C-3.61523438 159.12939453 -3.61523438 159.12939453 -4.61523438 162.12939453 C-3.6321419 165.36662113 -3.6321419 165.36662113 -2.17773438 168.81689453 C-1.70464844 169.99638672 -1.2315625 171.17587891 -0.74414062 172.39111328 C-0.18533203 173.7465625 -0.18533203 173.7465625 0.38476562 175.12939453 C1.04476563 174.79939453 1.70476562 174.46939453 2.38476562 174.12939453 C2.38476562 176.76939453 2.38476562 179.40939453 2.38476562 182.12939453 C1.72476562 182.45939453 1.06476563 182.78939453 0.38476562 183.12939453 C-0.52051076 180.86620357 -1.42425806 178.60251706 -2.32226562 176.33642578 C-3.27708084 173.96813789 -4.25338835 171.6157796 -5.25195312 169.26611328 C-5.52894043 168.60297119 -5.80592773 167.9398291 -6.09130859 167.2565918 C-6.64261002 165.93691199 -7.20265163 164.62084461 -7.77197266 163.30883789 C-9.28978944 159.63957604 -9.58948183 157.869594 -8.61523438 154.12939453 C-8.53240266 151.95348114 -8.50784316 149.77512391 -8.51757812 147.59765625 C-8.51973029 146.61709668 -8.51973029 146.61709668 -8.52192593 145.61672783 C-8.52569483 144.1874784 -8.53179041 142.75823368 -8.53991508 141.32900238 C-8.55302467 139.0076788 -8.55999113 136.6864048 -8.56544495 134.36505127 C-8.57383199 131.00379338 -8.58460598 127.64255577 -8.59719849 124.28131104 C-8.62938002 115.35048941 -8.63872227 106.41964347 -8.64257812 97.48876953 C-8.6430055 96.57263508 -8.64343288 95.65650063 -8.64387321 94.71260452 C-8.64840339 75.04336997 -8.47304058 55.37776075 -8.20996094 35.71042633 C-8.17766793 33.24933066 -8.14752096 30.78821681 -8.11791992 28.3270874 C-8.07118237 24.47605015 -8.01909806 20.62512499 -7.96229362 16.77422333 C-7.94202319 15.36104191 -7.9232865 13.94783758 -7.90616035 12.53461456 C-7.88235842 10.61708731 -7.8516665 8.69964918 -7.82055664 6.78222656 C-7.79724022 5.17107468 -7.79724022 5.17107468 -7.77345276 3.52737427 C-7.45367843 -1.3191697 -4.17162333 0.0026423 0 0 Z " fill="#56060C" transform="translate(285.615234375,66.87060546875)"/>
<path d="M0 0 C1.26481201 -0.00630432 2.52962402 -0.01260864 3.83276367 -0.019104 C5.20491679 -0.01552398 6.57706863 -0.01142196 7.94921875 -0.00683594 C9.36499091 -0.0081843 10.78076262 -0.01012626 12.1965332 -0.01263428 C15.1587364 -0.01557748 18.1208187 -0.01131386 21.08300781 -0.00195312 C24.87258021 0.00944103 28.66186926 0.00287724 32.45143127 -0.00909805 C35.37343465 -0.01633842 38.29537128 -0.01401875 41.21737671 -0.00884247 C42.61437005 -0.00751199 44.01136954 -0.00913254 45.40835571 -0.01380157 C47.36338173 -0.01890234 49.31842911 -0.00974453 51.2734375 0 C52.93959106 0.00238678 52.93959106 0.00238678 54.6394043 0.00482178 C57.71133094 0.26511107 59.88949406 0.88156091 62.63671875 2.25878906 C63.7800293 3.95336914 63.7800293 3.95336914 64.5234375 6.02832031 C64.81669922 6.81964355 65.10996094 7.6109668 65.41210938 8.42626953 C65.71310547 9.29912598 66.01410156 10.17198242 66.32421875 11.07128906 C66.65744141 11.99055176 66.99066406 12.90981445 67.33398438 13.85693359 C68.45805164 16.98318122 69.54972667 20.11946678 70.63671875 23.25878906 C71.23540771 24.97219482 71.23540771 24.97219482 71.84619141 26.72021484 C74.40972555 34.06366157 76.93665641 41.41925095 79.44921875 48.78027344 C84.47015307 63.48797742 89.67175575 78.10585994 95.12133789 92.66064453 C97.8703523 100.05113806 100.39004783 107.45649313 102.6015625 115.02441406 C103.38893291 117.4845752 104.24169633 119.61147393 105.328125 121.93066406 C106.63671875 125.25878906 106.63671875 125.25878906 106.32421875 127.69628906 C106.09734375 128.21191406 105.87046875 128.72753906 105.63671875 129.25878906 C104.50394607 127.07502141 103.38049086 124.88721778 102.26171875 122.69628906 C101.94460938 122.08720703 101.6275 121.478125 101.30078125 120.85058594 C99.21111813 116.73656167 97.84395924 112.73142894 96.63671875 108.25878906 C96.06878056 106.90962586 95.46788402 105.57350962 94.82421875 104.25878906 C90.16888529 94.06221912 87.13332188 83.15859296 84.63671875 72.25878906 C83.97671875 72.25878906 83.31671875 72.25878906 82.63671875 72.25878906 C81.67523789 69.37434647 81.47727063 67.26735179 81.32421875 64.25878906 C80.89945978 59.00848966 79.54853837 54.62981532 77.57421875 49.76660156 C76.641265 47.27095027 76.08772916 44.88028709 75.63671875 42.25878906 C74.97671875 42.25878906 74.31671875 42.25878906 73.63671875 42.25878906 C73.63671875 41.59878906 73.63671875 40.93878906 73.63671875 40.25878906 C72.97671875 40.25878906 72.31671875 40.25878906 71.63671875 40.25878906 C70.40409593 37.35332098 69.45242186 34.56767571 68.63671875 31.50878906 C68.30671875 30.43628906 67.97671875 29.36378906 67.63671875 28.25878906 C66.97671875 27.92878906 66.31671875 27.59878906 65.63671875 27.25878906 C65.07724476 25.23765267 64.61365354 23.18957292 64.19921875 21.13378906 C63.37936996 17.31479955 62.59538966 13.74487448 60.94921875 10.19628906 C59.63671875 7.25878906 59.63671875 7.25878906 59.63671875 3.25878906 C37.19671875 3.58878906 14.75671875 3.91878906 -8.36328125 4.25878906 C-8.69328125 123.05878906 -9.02328125 241.85878906 -9.36328125 364.25878906 C-6.39328125 363.92878906 -3.42328125 363.59878906 -0.36328125 363.25878906 C4.65330189 362.84225214 9.67564193 362.5160653 14.69921875 362.19628906 C15.74396362 362.12900604 15.74396362 362.12900604 16.80981445 362.06036377 C29.75878657 361.24058819 42.66169208 361.01588102 55.63671875 361.25878906 C55.63671875 361.58878906 55.63671875 361.91878906 55.63671875 362.25878906 C54.56164062 362.28457031 53.4865625 362.31035156 52.37890625 362.33691406 C38.07408676 362.80394146 23.91715385 364.2949142 9.70263672 365.88671875 C8.89381042 365.97612228 8.08498413 366.06552582 7.25164795 366.15763855 C5.72964211 366.32636605 4.20799967 366.49842001 2.68682861 366.67451477 C-1.68497055 367.15939155 -5.97117656 367.59783719 -10.36328125 367.25878906 C-12.66992022 363.79883061 -12.61300702 362.51610967 -12.61217022 358.43867493 C-12.61676902 357.21681362 -12.62136781 355.99495232 -12.62610596 354.73606491 C-12.62109042 353.37295211 -12.61588815 352.00983998 -12.61051941 350.64672852 C-12.6121068 349.20417285 -12.6145697 347.76161793 -12.61783582 346.31906509 C-12.62426762 342.34509149 -12.61816696 338.37121929 -12.61007154 334.39725232 C-12.60350785 330.11484269 -12.60844025 325.83244464 -12.61195374 321.55003357 C-12.61700319 313.15460431 -12.6113439 304.75921435 -12.60210343 296.36378998 C-12.59172815 286.58604506 -12.59178943 276.80830869 -12.59227601 267.0305593 C-12.59277706 249.57814452 -12.58360552 232.12574802 -12.5690918 214.67333984 C-12.55502088 197.74462551 -12.54792027 180.81592729 -12.54858398 163.88720703 C-12.54862394 162.84577919 -12.5486639 161.80435135 -12.54870506 160.73136508 C-12.54874542 159.69172961 -12.54878577 158.65209413 -12.54882735 157.58095455 C-12.54951803 138.31025718 -12.54362008 119.03956664 -12.53467413 99.76887149 C-12.5316616 92.95721171 -12.530595 86.14555319 -12.53014183 79.33389282 C-12.52945821 71.02364572 -12.52497324 62.71341013 -12.51580902 54.4031679 C-12.51120489 50.16492264 -12.50814038 45.92669207 -12.50940323 41.68844414 C-12.51050467 37.80332068 -12.50694099 33.9182296 -12.4997547 30.03311288 C-12.49795339 28.6326135 -12.49779925 27.23211075 -12.49952199 25.83161128 C-12.5081773 17.9144152 -12.25366968 10.12895865 -11.36328125 2.25878906 C-7.35346524 0.55246172 -4.37887795 0.00627278 0 0 Z " fill="#7D0A10" transform="translate(160.36328125,65.7412109375)"/>
<path d="M0 0 C0.33 0 0.66 0 1 0 C1.12817903 40.05119174 1.25564434 80.1023857 1.38218227 120.15358265 C1.3971985 124.90626215 1.41222051 129.65894163 1.42724609 134.41162109 C1.43173202 135.83059063 1.43173202 135.83059063 1.43630856 137.27822621 C1.48443772 152.49792304 1.53303213 167.71761835 1.58180541 182.93731312 C1.63202225 198.61078638 1.68172309 214.28426122 1.73096704 229.95773757 C1.7585657 238.73737363 1.78638822 247.51700885 1.81480408 256.2966423 C2.04479308 327.42439016 2.04479308 327.42439016 2 362 C2.60817283 361.93125955 3.21634565 361.86251909 3.84294796 361.79169559 C5.04748292 361.6564984 5.04748292 361.6564984 6.27635193 361.51856995 C7.07014976 361.42920449 7.86394758 361.33983904 8.68179989 361.24776554 C14.45964801 360.63023832 20.2644758 360.30657376 26.0625 359.9375 C27.10724487 359.87021698 27.10724487 359.87021698 28.1730957 359.80157471 C41.12206782 358.98179912 54.02497333 358.75709195 67 359 C67 359.33 67 359.66 67 360 C65.92492187 360.02578125 64.84984375 360.0515625 63.7421875 360.078125 C49.43736801 360.5451524 35.2804351 362.03612514 21.06591797 363.62792969 C20.25709167 363.71733322 19.44826538 363.80673676 18.6149292 363.89884949 C17.09292336 364.06757699 15.57128092 364.23963095 14.05010986 364.41572571 C9.6783107 364.90060248 5.39210469 365.33904813 1 365 C-1.30663897 361.54004155 -1.24972577 360.25732061 -1.24888897 356.17988586 C-1.25348777 354.95802456 -1.25808656 353.73616325 -1.26282471 352.47727585 C-1.25780917 351.11416304 -1.2526069 349.75105091 -1.24723816 348.38793945 C-1.24882555 346.94538379 -1.25128845 345.50282887 -1.25455457 344.06027603 C-1.26098637 340.08630243 -1.25488571 336.11243023 -1.24679029 332.13846326 C-1.2402266 327.85605362 -1.245159 323.57365557 -1.24867249 319.29124451 C-1.25372194 310.89581525 -1.24806265 302.50042529 -1.23882218 294.10500091 C-1.2284469 284.327256 -1.22850818 274.54951962 -1.22899476 264.77177024 C-1.22949581 247.31935545 -1.22032427 229.86695896 -1.20581055 212.41455078 C-1.19173963 195.48583645 -1.18463902 178.55713823 -1.18530273 161.62841797 C-1.18534269 160.58699013 -1.18538265 159.54556228 -1.18542381 158.47257602 C-1.18546417 157.43294055 -1.18550452 156.39330507 -1.1855461 155.32216549 C-1.18623678 136.05146811 -1.18033883 116.78077758 -1.17139288 97.51008242 C-1.16838035 90.69842265 -1.16731375 83.88676413 -1.16686058 77.07510376 C-1.16617696 68.76485665 -1.16169199 60.45462106 -1.15252777 52.14437884 C-1.14792364 47.90613358 -1.14485913 43.667903 -1.14612198 39.42965508 C-1.14722342 35.54453161 -1.14365974 31.65944054 -1.13647345 27.77432382 C-1.13467214 26.37382444 -1.134518 24.97332169 -1.13624074 23.57282221 C-1.14489605 15.65562614 -0.89038843 7.87016959 0 0 Z " fill="#2A0205" transform="translate(149,68)"/>
<path d="M0 0 C1.32 0.33 2.64 0.66 4 1 C4.66 3.64 5.32 6.28 6 9 C6.66 9 7.32 9 8 9 C8.33 11.64 8.66 14.28 9 17 C9.66 17 10.32 17 11 17 C11.19335938 17.66386719 11.38671875 18.32773437 11.5859375 19.01171875 C13.1372824 24.35185474 13.1372824 24.35185474 15.0625 29.5625 C16.23260689 32.60477792 16.8276065 35.67360576 17.4921875 38.859375 C17.97546866 41.14245798 17.97546866 41.14245798 19.125 43.75 C20.11786058 46.30307007 20.1551809 48.28433419 20 51 C17.71190747 48.71190747 17.25310833 47.20893235 16.265625 44.15234375 C15.77449219 42.6528418 15.77449219 42.6528418 15.2734375 41.12304688 C14.93570313 40.07181641 14.59796875 39.02058594 14.25 37.9375 C10.99279036 27.89877989 7.54239213 17.94085649 4 8 C4.00222061 8.70597824 4.00444122 9.41195648 4.00672913 10.139328 C4.03461383 19.48870918 4.05212143 28.83808473 4.0625 38.1875 C4.06335602 38.95299416 4.06421204 39.71848831 4.06509399 40.50717926 C4.09145125 67.29976882 3.87231482 94.08510362 3.5 120.875 C3.48804218 121.73583065 3.47608437 122.5966613 3.46376419 123.48357773 C3.31711245 133.98917383 3.16264071 144.49463879 3 155 C2.34 155 1.68 155 1 155 C0.86695263 141.5826432 0.73644732 128.16526401 0.60884857 114.74785423 C0.5494724 108.51190386 0.48934545 102.27596296 0.42724609 96.04003906 C0.10908806 64.02563951 -0.0766971 32.01602278 0 0 Z " fill="#58040C" transform="translate(219,271)"/>
<path d="M0 0 C1.25908676 0.00222061 2.51817352 0.00444122 3.81541443 0.00672913 C4.50806396 0.0065831 5.2007135 0.00643707 5.91435242 0.00628662 C8.21400537 0.00698577 10.51357828 0.01477823 12.81321716 0.02259827 C14.40362504 0.02446244 15.99403349 0.02588635 17.58444214 0.02688599 C21.77827021 0.03071123 25.97206386 0.04054156 30.1658783 0.05158997 C34.44220006 0.06180395 38.71852736 0.06638358 42.99485779 0.07142639 C51.39135799 0.08216383 59.78783017 0.09924032 68.18431091 0.12025452 C68.18431091 0.45025452 68.18431091 0.78025452 68.18431091 1.12025452 C45.08431091 1.12025452 21.98431091 1.12025452 -1.81568909 1.12025452 C-1.81568909 53.26025452 -1.81568909 105.40025452 -1.81568909 159.12025452 C-2.80568909 159.12025452 -3.79568909 159.12025452 -4.81568909 159.12025452 C-5.14568909 157.47025452 -5.47568909 155.82025452 -5.81568909 154.12025452 C-5.48568909 154.12025452 -5.15568909 154.12025452 -4.81568909 154.12025452 C-4.8179097 153.29486176 -4.82013031 152.46946899 -4.82241821 151.61906433 C-4.92117241 112.97699258 -4.91849856 74.33898046 -4.40996933 35.69950104 C-4.37811282 33.23936477 -4.34816962 30.77921134 -4.31864929 28.31904602 C-4.27192128 24.46772511 -4.21974289 20.6165184 -4.16281128 16.76533508 C-4.14250008 15.35204709 -4.12373632 13.93873592 -4.1065979 12.52540588 C-4.08279796 10.60790158 -4.05211349 8.69048631 -4.02101135 6.77308655 C-3.99769493 5.16193466 -3.99769493 5.16193466 -3.97390747 3.51823425 C-3.744706 0.04442509 -3.52274823 0.15045212 0 0 Z " fill="#51050B" transform="translate(281.81568908691406,66.87974548339844)"/>
<path d="M0 0 C2.06515886 2.06515886 2.57116217 3.15547314 3.5246582 5.84448242 C3.80867996 6.63678757 4.09270172 7.42909271 4.3853302 8.2454071 C4.68742905 9.10672745 4.98952789 9.96804779 5.30078125 10.85546875 C5.61903366 11.74929764 5.93728607 12.64312653 6.2651825 13.56404114 C7.28628638 16.43666725 8.29930168 19.31207734 9.3125 22.1875 C9.98323453 24.07504378 10.65445328 25.96241557 11.32617188 27.84960938 C14.17916407 35.88433692 16.9978664 43.92593705 19.66796875 52.0234375 C21.93696995 58.89730107 24.4414609 65.66702859 27 72.4375 C30.26384391 81.14510055 33.35643193 89.83950091 35.96484375 98.765625 C36.75221416 101.22578613 37.60497758 103.35268487 38.69140625 105.671875 C40 109 40 109 39.6875 111.4375 C39.460625 111.953125 39.23375 112.46875 39 113 C37.86722732 110.81623234 36.74377211 108.62842872 35.625 106.4375 C35.30789063 105.82841797 34.99078125 105.21933594 34.6640625 104.59179688 C32.57439938 100.47777261 31.20724049 96.47263987 30 92 C29.43206181 90.65083679 28.83116527 89.31472056 28.1875 88 C23.53216654 77.80343006 20.49660313 66.8998039 18 56 C17.34 56 16.68 56 16 56 C15.03851914 53.11555741 14.84055188 51.00856272 14.6875 48 C14.26274103 42.74970059 12.91181962 38.37102626 10.9375 33.5078125 C10.00454625 31.01216121 9.45101041 28.62149802 9 26 C8.34 26 7.68 26 7 26 C7 25.34 7 24.68 7 24 C6.34 24 5.68 24 5 24 C3.3074469 20.19706689 2.51441742 16.6784907 1.9375 12.5625 C1.78152344 11.47066406 1.62554687 10.37882812 1.46484375 9.25390625 C1.31144531 8.18011719 1.15804687 7.10632813 1 6 C0.67224311 3.99907858 0.34066421 1.99876437 0 0 Z " fill="#A30E17" transform="translate(227,82)"/>
<path d="M0 0 C0.33 0 0.66 0 1 0 C1 26.73 1 53.46 1 81 C-5.37876938 81 -11.31760646 80.89824468 -17.5859375 80.16015625 C-19.1836643 79.98273125 -20.78140234 79.80540735 -22.37915039 79.62817383 C-23.19658722 79.53549225 -24.01402405 79.44281067 -24.85623169 79.34732056 C-37.72077442 77.89260707 -50.5249501 76.5757745 -63.47265625 76.17578125 C-66.44309886 76.02775255 -69.11583905 75.69152397 -72 75 C-72 74.67 -72 74.34 -72 74 C-48.01835594 73.4371974 -23.61546428 74.69584491 0 79 C-0.16455185 78.32681229 -0.3291037 77.65362457 -0.49864197 76.96003723 C-1.09155722 73.45944263 -1.07617953 70.19082049 -1.02172852 66.6394043 C-1.01212097 65.91690994 -1.00251343 65.19441559 -0.99261475 64.45002747 C-0.95977454 62.07465403 -0.91938586 59.69947324 -0.87890625 57.32421875 C-0.85459047 55.67227344 -0.83074765 54.02032111 -0.80735779 52.36836243 C-0.74466192 48.02985608 -0.67555454 43.69147479 -0.60510254 39.35308838 C-0.53428782 34.92229892 -0.46954959 30.49142112 -0.40429688 26.06054688 C-0.27547151 17.37360006 -0.13987129 8.68677595 0 0 Z " fill="#990E18" transform="translate(349,352)"/>
<path d="M0 0 C3.55579487 2.37052991 3.62808827 3.24044292 4.625 7.25 C4.87121094 8.23097656 5.11742187 9.21195313 5.37109375 10.22265625 C6.03081943 13.13610319 6.59986723 16.03901752 7 19 C7.66 19 8.32 19 9 19 C9.10957031 19.56847656 9.21914062 20.13695312 9.33203125 20.72265625 C9.49058594 21.49480469 9.64914063 22.26695312 9.8125 23.0625 C9.96332031 23.81660156 10.11414063 24.57070312 10.26953125 25.34765625 C11.01068125 28.03878381 12.04539676 30.49776209 13.17260742 33.04711914 C14.71697033 36.69225307 15.96140493 40.44603674 17.25 44.1875 C17.70016479 45.48276611 17.70016479 45.48276611 18.15942383 46.80419922 C19.10858104 49.53534167 20.05461746 52.26754887 21 55 C25.78770568 68.99030118 25.78770568 68.99030118 31.1015625 82.78515625 C34.69501538 91.64379879 37.73567822 100.70993214 40 110 C39.34 110 38.68 110 38 110 C30.45320785 91.65018558 30.45320785 91.65018558 31 86 C30.34 86 29.68 86 29 86 C25.52486134 76.15034662 22.07481247 66.29747002 18.8125 56.375 C17.04643177 51.01242835 15.16400627 45.75712869 12.9921875 40.54296875 C11.71861274 37.27880667 10.64404658 33.95623006 9.5625 30.625 C7.68438487 24.85099617 5.53770276 19.25107638 3.11328125 13.68359375 C1.18589509 9.03757869 -0.29841478 5.07305128 0 0 Z " fill="#CF0C17" transform="translate(187,170)"/>
<path d="M0 0 C0.33 0 0.66 0 1 0 C1.15384147 20.28801969 1.3018764 40.57607379 1.4429636 60.86418629 C1.50860604 70.28391034 1.57616186 79.70361347 1.64819336 89.12329102 C1.71095757 97.33170081 1.77016105 105.54012717 1.82505554 113.74859351 C1.85425761 118.09650234 1.88526517 122.44438166 1.92053413 126.79224586 C1.95365446 130.88215969 1.98202415 134.97207859 2.00670624 139.06205177 C2.01662364 140.5653205 2.02829607 142.06857879 2.04183006 143.57181931 C2.06001224 145.6201343 2.07133971 147.66850675 2.08229065 149.71687317 C2.09058679 150.86450543 2.09888292 152.0121377 2.10743046 153.1945467 C2 156 2 156 1 159 C1.98309248 162.2372266 1.98309248 162.2372266 3.4375 165.6875 C3.91058594 166.86699219 4.38367188 168.04648438 4.87109375 169.26171875 C5.42990234 170.61716797 5.42990234 170.61716797 6 172 C6.66 171.67 7.32 171.34 8 171 C8 173.64 8 176.28 8 179 C7.34 179.33 6.68 179.66 6 180 C5.76925781 179.41734375 5.53851563 178.8346875 5.30078125 178.234375 C4.97464844 177.41453125 4.64851563 176.5946875 4.3125 175.75 C3.95414062 174.84765625 3.59578125 173.9453125 3.2265625 173.015625 C2.37084074 170.91174857 1.48844182 168.81861149 0.5859375 166.734375 C0.12445313 165.66703125 -0.33703125 164.5996875 -0.8125 163.5 C-1.47185547 161.99953125 -1.47185547 161.99953125 -2.14453125 160.46875 C-2.42683594 159.6540625 -2.70914062 158.839375 -3 158 C-2.505 157.01 -2.505 157.01 -2 156 C-1.67 156 -1.34 156 -1 156 C-0.67 104.52 -0.34 53.04 0 0 Z " fill="#A30916" transform="translate(280,70)"/>
<path d="M0 0 C4.65848697 6.98773045 6.90994788 15.62893342 9.5 23.5625 C11.36581946 29.26557079 13.52534324 34.7454994 15.88671875 40.2578125 C17.20144493 43.49619067 18.17332252 46.75914749 19.12890625 50.1171875 C20.2686167 53.88896469 21.56283835 57.59771381 22.875 61.3125 C23.13297363 62.043479 23.39094727 62.77445801 23.65673828 63.52758789 C25.28524716 68.09947203 27.01818993 72.61582078 28.8125 77.125 C30.51792451 81.48148506 31.67460796 85.33604743 32 90 C29 88 29 88 28.48828125 86.0546875 C28.32552083 84.03645833 28.16276042 82.01822917 28 80 C26.515 79.505 26.515 79.505 25 79 C25 76.36 25 73.72 25 71 C24.34 71 23.68 71 23 71 C22.49564306 69.0636296 21.99666126 67.12585854 21.5 65.1875 C21.08234375 63.56908203 21.08234375 63.56908203 20.65625 61.91796875 C20 59 20 59 20 56 C19.34 56 18.68 56 18 56 C15.5304518 48.70417741 13.15928935 41.39393019 11 34 C10.34 34 9.68 34 9 34 C8.89042969 33.3709375 8.78085937 32.741875 8.66796875 32.09375 C7.77259076 27.26016473 6.67984247 22.77562979 4.86328125 18.2109375 C3.77136651 15.41444998 2.78552958 12.59000861 1.8125 9.75 C1.46832031 8.75484375 1.12414062 7.7596875 0.76953125 6.734375 C0 4 0 4 0 0 Z " fill="#CC0A16" transform="translate(290,264)"/>
<path d="M0 0 C0.33 0 0.66 0 1 0 C1 13.86 1 27.72 1 42 C5.455 41.505 5.455 41.505 10 41 C15.01658314 40.58346308 20.03892318 40.25727624 25.0625 39.9375 C25.75899658 39.89264465 26.45549316 39.84778931 27.1730957 39.80157471 C40.12206782 38.98179912 53.02497333 38.75709195 66 39 C66 39.33 66 39.66 66 40 C64.92492187 40.02578125 63.84984375 40.0515625 62.7421875 40.078125 C48.43736801 40.5451524 34.2804351 42.03612514 20.06591797 43.62792969 C18.85267853 43.76203499 18.85267853 43.76203499 17.6149292 43.89884949 C16.09292336 44.06757699 14.57128092 44.23963095 13.05010986 44.41572571 C8.62375794 44.90665294 4.49536118 45 0 45 C0 30.15 0 15.3 0 0 Z " fill="#6A080D" transform="translate(150,388)"/>
<path d="M0 0 C0.99 0 1.98 0 3 0 C3.66 2.64 4.32 5.28 5 8 C5.66 8 6.32 8 7 8 C7.33 10.64 7.66 13.28 8 16 C8.66 16 9.32 16 10 16 C10.19335938 16.66386719 10.38671875 17.32773437 10.5859375 18.01171875 C12.1372824 23.35185474 12.1372824 23.35185474 14.0625 28.5625 C15.23260689 31.60477792 15.8276065 34.67360576 16.4921875 37.859375 C16.97546866 40.14245798 16.97546866 40.14245798 18.125 42.75 C19.11786058 45.30307007 19.1551809 47.28433419 19 50 C16.71190747 47.71190747 16.25310833 46.20893235 15.265625 43.15234375 C14.94142578 42.16186035 14.61722656 41.17137695 14.28320312 40.15087891 C13.94224609 39.09046387 13.60128906 38.03004883 13.25 36.9375 C12.53777919 34.75607872 11.8242277 32.57509147 11.109375 30.39453125 C10.75552734 29.31381348 10.40167969 28.2330957 10.03710938 27.11962891 C8.35196622 22.05071194 6.55517908 17.02274053 4.72753906 12.00366211 C3 7.20689428 3 7.20689428 3 5 C2.34 5 1.68 5 1 5 C1 16.55 1 28.1 1 40 C0.67 40 0.34 40 0 40 C0 26.8 0 13.6 0 0 Z " fill="#700811" transform="translate(220,272)"/>
<path d="M0 0 C23.76 0 47.52 0 72 0 C75.67934906 9.19837266 77.74227415 17.35743514 79 27 C77.09765625 26.38671875 77.09765625 26.38671875 75 25 C74.05859375 22.20703125 74.05859375 22.20703125 73.4375 18.8125 C72.31715338 13.23332907 72.31715338 13.23332907 70.3125 7.9375 C69 5 69 5 69 1 C46.23 1.33 23.46 1.66 0 2 C0 1.34 0 0.68 0 0 Z " fill="#BE1520" transform="translate(151,68)"/>
<path d="M0 0 C0.33 0 0.66 0 1 0 C1.14471874 4.35580324 1.28702391 8.71167719 1.42724609 13.06762695 C1.47511111 14.54453578 1.52359651 16.02142464 1.57275391 17.49829102 C2.38212111 41.85363668 2.38212111 41.85363668 1 46 C1.98309248 49.2372266 1.98309248 49.2372266 3.4375 52.6875 C3.91058594 53.86699219 4.38367188 55.04648438 4.87109375 56.26171875 C5.24363281 57.16535156 5.61617188 58.06898438 6 59 C6.99 58.505 6.99 58.505 8 58 C8 60.64 8 63.28 8 66 C7.01 66.495 7.01 66.495 6 67 C5.76925781 66.41734375 5.53851563 65.8346875 5.30078125 65.234375 C4.97464844 64.41453125 4.64851563 63.5946875 4.3125 62.75 C3.95414062 61.84765625 3.59578125 60.9453125 3.2265625 60.015625 C2.37084074 57.91174857 1.48844182 55.81861149 0.5859375 53.734375 C0.12445313 52.66703125 -0.33703125 51.5996875 -0.8125 50.5 C-1.25207031 49.4996875 -1.69164062 48.499375 -2.14453125 47.46875 C-2.42683594 46.6540625 -2.70914062 45.839375 -3 45 C-2.67 44.34 -2.34 43.68 -2 43 C-1.67 43 -1.34 43 -1 43 C-0.67 28.81 -0.34 14.62 0 0 Z " fill="#8F0816" transform="translate(280,183)"/>
<path d="M0 0 C2.09449537 2.09449537 2.6038705 3.25012176 3.57226562 5.98730469 C3.86597046 6.80865906 4.15967529 7.63001343 4.46228027 8.47625732 C4.77379028 9.36581116 5.08530029 10.25536499 5.40625 11.171875 C5.73161743 12.08704895 6.05698486 13.0022229 6.39221191 13.94512939 C7.43348847 16.87822276 8.46675584 19.81406867 9.5 22.75 C10.19610525 24.71372229 10.89271386 26.67726623 11.58984375 28.640625 C14.81244339 37.73087562 14.81244339 37.73087562 16.2512207 41.85632324 C16.90447558 43.72652359 17.56940913 45.59263645 18.23632812 47.45800781 C19.0442814 50.14739704 18.99592324 51.41059958 18 54 C13.8533851 45.08477797 11.24737583 35.55134727 9 26 C8.34 26 7.68 26 7 26 C7 25.34 7 24.68 7 24 C6.34 24 5.68 24 5 24 C3.3074469 20.19706689 2.51441742 16.6784907 1.9375 12.5625 C1.78152344 11.47066406 1.62554687 10.37882812 1.46484375 9.25390625 C1.31144531 8.18011719 1.15804687 7.10632813 1 6 C0.67224311 3.99907858 0.34066421 1.99876437 0 0 Z " fill="#65060A" transform="translate(227,82)"/>
<path d="M0 0 C11.72024504 -0.11465457 23.31068812 0.09710143 35 1 C35 1.66 35 2.32 35 3 C35.86044922 2.96519531 35.86044922 2.96519531 36.73828125 2.9296875 C48.88564748 2.67162509 60.97192458 4.47415272 73 6 C73 6.33 73 6.66 73 7 C64.27232492 7.27439952 55.79878501 6.32863262 47.14376831 5.34732056 C34.27922558 3.89260707 21.4750499 2.5757745 8.52734375 2.17578125 C5.55690114 2.02775255 2.88416095 1.69152397 0 1 C0 0.67 0 0.34 0 0 Z " fill="#61050A" transform="translate(277,426)"/>
<path d="M0 0 C3.71103515 3.32147898 4.57079778 7.36785352 6 12 C6.7867478 14.37663397 7.57885643 16.75149699 8.375 19.125 C8.58447266 19.75801025 8.79394531 20.39102051 9.00976562 21.04321289 C10.13020039 24.42778906 11.27696565 27.79998648 12.46875 31.16015625 C12.70416504 31.83481934 12.93958008 32.50948242 13.18212891 33.20458984 C13.84114741 35.09061813 14.51015087 36.9731487 15.1796875 38.85546875 C15.96187961 41.85387185 16.13424783 43.17838349 15 46 C11.29969171 37.88399047 8.31136318 30.03423303 6.01171875 21.3984375 C4.698784 16.98819336 2.89553031 12.88439031 0.953125 8.71875 C-0.11825841 5.66267275 -0.17022028 3.21527204 0 0 Z " fill="#9D000B" transform="translate(290,258)"/>
<path d="M0 0 C2.35724116 2.35724116 2.94026348 4.1802418 4.05859375 7.3125 C4.63770508 8.92705078 4.63770508 8.92705078 5.22851562 10.57421875 C5.62748047 11.70472656 6.02644531 12.83523437 6.4375 14 C6.83259766 15.09957031 7.22769531 16.19914062 7.63476562 17.33203125 C9.70585842 23.14211853 11.65182489 28.95585681 13.33325195 34.89111328 C13.99415503 36.98151269 14.81999862 38.89186662 15.75 40.875 C17.06554055 44.16385138 17.01932926 44.81803974 16 48 C10.97428539 39.25207025 7.96226046 30.95606737 5.71533203 21.14160156 C4.48789538 15.8059046 3.01708701 10.85887483 0.69921875 5.875 C0 4 0 4 0 0 Z " fill="#5D0509" transform="translate(250,147)"/>
<path d="M0 0 C0.66 0 1.32 0 2 0 C3.80304155 5.30094216 5.50723624 10.60308488 7 16 C8.32 16 9.64 16 11 16 C13.125 22.75 13.125 22.75 12 25 C9.9375 25.625 9.9375 25.625 8 26 C6.84240217 23.17098808 5.69884999 20.33753932 4.5625 17.5 C4.23701172 16.70851563 3.91152344 15.91703125 3.57617188 15.1015625 C1.55065267 10.00644204 0.44528248 5.46882143 0 0 Z " fill="#9A0008" transform="translate(306,304)"/>
<path d="M0 0 C0.66 0 1.32 0 2 0 C2.67184618 2.10251861 3.33730968 4.20707763 4 6.3125 C4.37125 7.48425781 4.7425 8.65601563 5.125 9.86328125 C6 13 6 13 6 16 C6.61875 16.165 7.2375 16.33 7.875 16.5 C10.80103493 18.56543642 10.98732399 20.54750762 11.6953125 23.95703125 C12.04943234 26.33145019 12.14976371 28.60378059 12 31 C11.34 31 10.68 31 10 31 C8.51231386 26.96141847 7.03637154 22.91864149 5.5625 18.875 C4.93118164 17.16183594 4.93118164 17.16183594 4.28710938 15.4140625 C3.88427734 14.30546875 3.48144531 13.196875 3.06640625 12.0546875 C2.69459229 11.03874512 2.32277832 10.02280273 1.93969727 8.97607422 C0.99641322 5.98864045 0.43829084 3.09833252 0 0 Z " fill="#5A0308" transform="translate(265,395)"/>
<path d="M0 0 C0.66 0 1.32 0 2 0 C2.19335938 0.66386719 2.38671875 1.32773437 2.5859375 2.01171875 C4.1372824 7.35185474 4.1372824 7.35185474 6.0625 12.5625 C7.23260689 15.60477792 7.8276065 18.67360576 8.4921875 21.859375 C8.97546866 24.14245798 8.97546866 24.14245798 10.125 26.75 C11.11786058 29.30307007 11.1551809 31.28433419 11 34 C8.81336846 31.81336846 8.32082667 30.48953502 7.34375 27.59765625 C7.04412354 26.71166748 6.74449707 25.82567871 6.43579102 24.9128418 C6.12697998 23.972229 5.81816895 23.03161621 5.5 22.0625 C5.18538818 21.1135083 4.87077637 20.1645166 4.54663086 19.18676758 C2.49419898 12.86488758 0.76002263 6.62305438 0 0 Z " fill="#800A10" transform="translate(228,288)"/>
<path d="M0 0 C5.48945283 8.23417925 6.74388714 17.36980139 8 27 C6.10546875 26.3671875 6.10546875 26.3671875 4 25 C0.96800422 17.15661325 0.43544702 8.33355501 0 0 Z " fill="#BF111A" transform="translate(222,68)"/>
<path d="M0 0 C3.24958704 3.24958704 4.14576368 7.58761994 5.625 11.875 C5.94984375 12.78636719 6.2746875 13.69773438 6.609375 14.63671875 C6.91617187 15.51714844 7.22296875 16.39757812 7.5390625 17.3046875 C7.81959473 18.10890137 8.10012695 18.91311523 8.38916016 19.74169922 C9 22 9 22 9 26 C7.125 25.4375 7.125 25.4375 5 24 C3.8125 20.4375 3.8125 20.4375 3 17 C2.67 16.67 2.34 16.34 2 16 C1.60006314 13.31137336 1.24865457 10.63647783 0.9375 7.9375 C0.84662109 7.17888672 0.75574219 6.42027344 0.66210938 5.63867188 C0.4375626 3.7595699 0.21829022 1.87983905 0 0 Z " fill="#7E0910" transform="translate(267,195)"/>
<path d="M0 0 C3.99355495 1.99677748 5.41230017 7.02824616 7 11 C8.76744738 17.58644678 9.89961364 24.2754167 11 31 C8.69816112 28.69816112 8.15421497 27.04360041 7.08984375 23.984375 C6.73986328 22.98019531 6.38988281 21.97601563 6.02929688 20.94140625 C5.66900391 19.88824219 5.30871094 18.83507812 4.9375 17.75 C4.57333984 16.71230469 4.20917969 15.67460937 3.83398438 14.60546875 C2.14801554 9.72519666 0.75093824 5.12316179 0 0 Z " fill="#69070D" transform="translate(254,364)"/>
<path d="M0 0 C3.46528089 3.46528089 4.88505382 8.16086116 5.1875 13 C5.125625 13.66 5.06375 14.32 5 15 C4.01 15.495 4.01 15.495 3 16 C3 18.97 3 21.94 3 25 C0.23058953 22.23058953 0.60043549 20.30747594 0.375 16.4375 C0.30152344 15.18582031 0.22804687 13.93414062 0.15234375 12.64453125 C-0.02428525 8.4190222 -0.07289837 4.22810529 0 0 Z " fill="#99010A" transform="translate(176,144)"/>
<path d="M0 0 C0.33 0.66 0.66 1.32 1 2 C1.99 2.33 2.98 2.66 4 3 C4.80859375 5.58984375 4.80859375 5.58984375 5.4375 8.9375 C6.53341894 14.27058149 8.03408406 18.95004293 10.328125 23.87890625 C11.10779653 26.34031115 10.84955605 27.59837039 10 30 C0 5.6 0 5.6 0 0 Z " fill="#530305" transform="translate(239,322)"/>
<path d="M0 0 C0.66 0 1.32 0 2 0 C3.65 4.29 5.3 8.58 7 13 C7.66 12.67 8.32 12.34 9 12 C9 14.64 9 17.28 9 20 C8.34 20.33 7.68 20.66 7 21 C5.65605607 17.67083939 4.3243571 14.33700016 3 11 C2.53787109 9.84177734 2.53787109 9.84177734 2.06640625 8.66015625 C0.88871097 5.63421191 0 3.27669121 0 0 Z " fill="#96010A" transform="translate(279,229)"/>
<path d="M0 0 C0.99 0.33 1.98 0.66 3 1 C4.31640625 3.984375 4.31640625 3.984375 5.5625 7.75 C7.22648762 12.77613935 7.22648762 12.77613935 9.15234375 17.703125 C10 20 10 20 10 24 C9.01 23.67 8.02 23.34 7 23 C6.52413812 20.92660182 6.06188268 18.84906058 5.671875 16.7578125 C4.62559414 12.46319454 2.8058433 8.53750089 1.0234375 4.50390625 C0 2 0 2 0 0 Z " fill="#C90D18" transform="translate(273,220)"/>
<path d="M0 0 C4.61806576 3.61195122 5.69727823 8.16628289 7.3125 13.5625 C7.58900391 14.42552734 7.86550781 15.28855469 8.15039062 16.17773438 C10.13236166 22.60291503 10.13236166 22.60291503 9 26 C8.49166409 24.75336669 7.99368855 23.50250613 7.5 22.25 C7.2215625 21.55390625 6.943125 20.8578125 6.65625 20.140625 C6 18 6 18 6 14 C5.34 14 4.68 14 4 14 C3.32968281 12.0429132 2.66385317 10.08428887 2 8.125 C1.62875 7.03445312 1.2575 5.94390625 0.875 4.8203125 C0 2 0 2 0 0 Z " fill="#CE0C16" transform="translate(177,144)"/>
<path d="M0 0 C2.81904264 3.75872352 3.9084971 6.16257071 5.25 10.5625 C5.78367187 12.26599609 5.78367187 12.26599609 6.328125 14.00390625 C7 17 7 17 6 20 C4.23537317 16.91190305 4 15.76687864 4 12 C3.01 12 2.02 12 1 12 C0.67 8.04 0.34 4.08 0 0 Z " fill="#D50C18" transform="translate(283,244)"/>
<path d="M0 0 C4.44719969 2.96479979 5.45495341 7.00340438 7 12 C7.54267621 15.02920083 7.80135793 17.92104785 8 21 C7.34 21.33 6.68 21.66 6 22 C3.89068424 14.69852237 1.81496703 7.38086591 0 0 Z " fill="#9D010A" transform="translate(204,226)"/>
<path d="M0 0 C0.66 0 1.32 0 2 0 C4.05177715 5.27599837 5.80504586 10.55002708 7.3515625 15.99609375 C7.8243466 17.97603488 7.8243466 17.97603488 9 19 C9.04063832 20.66617115 9.042721 22.33388095 9 24 C3.53119395 17.45612951 1.88405644 8.16424459 0 0 Z " fill="#D40C17" transform="translate(166,112)"/>
<path d="M0 0 C3.99625449 4.72284621 5 8.84635524 5 15 C1.04 14.67 -2.92 14.34 -7 14 C-7 13.67 -7 13.34 -7 13 C-3.7 13 -0.4 13 3 13 C2.7834375 12.31292969 2.566875 11.62585938 2.34375 10.91796875 C2.0653125 10.01691406 1.786875 9.11585938 1.5 8.1875 C1.2215625 7.29417969 0.943125 6.40085937 0.65625 5.48046875 C0 3 0 3 0 0 Z " fill="#D20C16" transform="translate(344,416)"/>
<path d="M0 0 C3.54295139 2.36196759 3.77042481 3.92015058 4.66015625 7.95703125 C5.05564067 10.33448358 5.15030725 12.59508395 5 15 C4.34 15 3.68 15 3 15 C0.5978396 10.1956792 0.38877771 5.26896105 0 0 Z " fill="#950F16" transform="translate(272,411)"/>
<path d="M0 0 C3.34530013 3.34530013 4.92459342 6.64268147 5.1875 11.375 C5.125625 12.24125 5.06375 13.1075 5 14 C5.66 14 6.32 14 7 14 C7.33 15.65 7.66 17.3 8 19 C7.01 18.67 6.02 18.34 5 18 C3.95222369 15.52665762 3.09838539 13.17972108 2.3125 10.625 C2.08755859 9.93921875 1.86261719 9.2534375 1.63085938 8.546875 C0.68529527 5.59234644 0 3.1196449 0 0 Z " fill="#BE121C" transform="translate(235,306)"/>
<path d="M0 0 C2.76669035 2.37033864 3.72666067 4.46545585 4.75 7.9375 C5.14445312 9.21947266 5.14445312 9.21947266 5.546875 10.52734375 C6.01667187 13.09097669 5.83746128 14.56117696 5 17 C4.15838146 14.91999989 3.32699237 12.83585854 2.5 10.75 C2.0359375 9.58984375 1.571875 8.4296875 1.09375 7.234375 C0 4 0 4 0 0 Z " fill="#9C0007" transform="translate(315,330)"/>
<path d="M0 0 C2 1 2 1 2.78125 3.07421875 C3.0184375 3.93660156 3.255625 4.79898437 3.5 5.6875 C3.75394531 6.58597656 4.00789063 7.48445313 4.26953125 8.41015625 C4.51058594 9.26480469 4.75164062 10.11945313 5 11 C5.65629516 13.00342734 6.31760646 15.00531118 7 17 C4 16 4 16 2.83203125 13.671875 C2.49558594 12.70765625 2.15914063 11.7434375 1.8125 10.75 C1.46832031 9.79609375 1.12414062 8.8421875 0.76953125 7.859375 C0.02396609 5.08905165 -0.15085479 2.85063531 0 0 Z " fill="#C4111C" transform="translate(267,395)"/>
<path d="M0 0 C0.33 0.99 0.66 1.98 1 3 C1.66 3 2.32 3 3 3 C3 2.01 3 1.02 3 0 C3.66 0 4.32 0 5 0 C5 2.97 5 5.94 5 9 C3.68 8.34 2.36 7.68 1 7 C0.25 3.375 0.25 3.375 0 0 Z " fill="#95030B" transform="translate(168,132)"/>
<path d="M0 0 C0.66 0 1.32 0 2 0 C4.125 6.75 4.125 6.75 3 9 C2.01 9 1.02 9 0 9 C-0.87890625 2.84765625 -0.87890625 2.84765625 -1 1 C-0.67 0.67 -0.34 0.34 0 0 Z " fill="#8B0410" transform="translate(315,320)"/>
<path d="M0 0 C0.66 0 1.32 0 2 0 C2.66 1.98 3.32 3.96 4 6 C4.33 6 4.66 6 5 6 C5.33 9.3 5.66 12.6 6 16 C4.08614468 13.12921701 3.03567048 10.66588344 1.875 7.4375 C1.52179688 6.46683594 1.16859375 5.49617188 0.8046875 4.49609375 C0 2 0 2 0 0 Z " fill="#D60C16" transform="translate(153,75)"/>
<path d="M0 0 C2 1 2 1 2.88671875 3.14453125 C3.28310547 4.46517578 3.28310547 4.46517578 3.6875 5.8125 C3.95949219 6.68519531 4.23148438 7.55789063 4.51171875 8.45703125 C5.01319861 11.06873834 4.86233704 12.51716384 4 15 C3.32243118 13.44219668 2.65840543 11.87849904 2 10.3125 C1.62875 9.44238281 1.2575 8.57226562 0.875 7.67578125 C-0.01870488 4.9427998 -0.16449676 2.85299066 0 0 Z " fill="#B81219" transform="translate(244,331)"/>
<path d="M0 0 C0.33 0.66 0.66 1.32 1 2 C1.99 2.33 2.98 2.66 4 3 C4.33 5.64 4.66 8.28 5 11 C4.34 11 3.68 11 3 11 C2.49384702 9.73160474 1.99530901 8.46016898 1.5 7.1875 C1.2215625 6.47980469 0.943125 5.77210938 0.65625 5.04296875 C0 3 0 3 0 0 Z " fill="#760A0D" transform="translate(239,322)"/>
<path d="M0 0 C3.33193619 2.69728168 4.60371996 6.02060187 6 10 C5.578125 12.22265625 5.578125 12.22265625 5 14 C2.46690767 9.35796103 0.53484401 5.34844008 0 0 Z " fill="#BA111C" transform="translate(261,185)"/>
<path d="M0 0 C2 1 2 1 3.10546875 3.87109375 C3.46253906 5.04800781 3.81960938 6.22492188 4.1875 7.4375 C4.55230469 8.61183594 4.91710937 9.78617187 5.29296875 10.99609375 C6 14 6 14 5 16 C4.67 14.68 4.34 13.36 4 12 C3.34 12 2.68 12 2 12 C1.34 8.04 0.68 4.08 0 0 Z " fill="#CC0A13" transform="translate(334,388)"/>
<path d="M0 0 C2.66246807 1.33123403 2.94601652 2.6764378 4.125 5.375 C4.47820312 6.16648437 4.83140625 6.95796875 5.1953125 7.7734375 C6 10 6 10 6 13 C5.34 13 4.68 13 4 13 C3.32694982 11.39850114 2.66177773 9.79368971 2 8.1875 C1.62875 7.29417969 1.2575 6.40085937 0.875 5.48046875 C0 3 0 3 0 0 Z " fill="#C60F18" transform="translate(221,267)"/>
<path d="M0 0 C0.99 0 1.98 0 3 0 C3.53154742 1.60064843 4.04988353 3.20568874 4.5625 4.8125 C4.85253906 5.70582031 5.14257812 6.59914063 5.44140625 7.51953125 C6 10 6 10 5 13 C4.34 10.36 3.68 7.72 3 5 C2.34 5 1.68 5 1 5 C0.67 3.35 0.34 1.7 0 0 Z " fill="#620102" transform="translate(220,272)"/>
<path d="M0 0 C3.45854519 3.45854519 4 7.21904213 4 12 C3.34 12 2.68 12 2 12 C0.86235649 7.73383684 0 4.43513689 0 0 Z " fill="#B2111A" transform="translate(235,108)"/>
<path d="M0 0 C5.2688172 7.90322581 5.2688172 7.90322581 4.6875 12.4375 C4.460625 12.953125 4.23375 13.46875 4 14 C0.68557793 9.53273547 0.33990833 5.37992836 0 0 Z " fill="#590507" transform="translate(222,68)"/>
<path d="M0 0 C2 1 2 1 3.125 3.25 C4.00513321 6.01613295 4.1645438 8.12048351 4 11 C3.34 10.67 2.68 10.34 2 10 C2 8.68 2 7.36 2 6 C1.34 6 0.68 6 0 6 C0 4.02 0 2.04 0 0 Z " fill="#A0010C" transform="translate(198,207)"/>
<path d="M0 0 C0.33 0 0.66 0 1 0 C1.22245393 1.60226955 1.42746669 3.20696767 1.625 4.8125 C1.74101562 5.70582031 1.85703125 6.59914062 1.9765625 7.51953125 C2 10 2 10 0 13 C-0.99 12.67 -1.98 12.34 -3 12 C-2.67 11.34 -2.34 10.68 -2 10 C-1.67 10 -1.34 10 -1 10 C-0.67 6.7 -0.34 3.4 0 0 Z " fill="#82040D" transform="translate(280,216)"/>
<path d="M0 0 C4.13333333 6.2 4.13333333 6.2 3.625 9.25 C3.41875 9.8275 3.2125 10.405 3 11 C3 10.34 3 9.68 3 9 C2.34 9 1.68 9 1 9 C0.67 6.03 0.34 3.06 0 0 Z " fill="#BC131D" transform="translate(242,129)"/>
<path d="M0 0 C0.66 0 1.32 0 2 0 C2.66 2.64 3.32 5.28 4 8 C3.01 7.67 2.02 7.34 1 7 C0.67 4.69 0.34 2.38 0 0 Z " fill="#9E020B" transform="translate(218,264)"/>
<path d="M0 0 C2.96052484 3.36423277 3.92289822 6.69159287 5 11 C0.05973451 6.28429204 0.05973451 6.28429204 -0.125 2.3125 C-0.08375 1.549375 -0.0425 0.78625 0 0 Z " fill="#C40713" transform="translate(283,244)"/>
<path d="M0 0 C0.66 0 1.32 0 2 0 C2.8723412 2.99480917 3.10829766 5.63575911 3.0625 8.75 C3.05347656 9.54921875 3.04445312 10.3484375 3.03515625 11.171875 C3.01775391 12.07679688 3.01775391 12.07679688 3 13 C0.41073669 10.41073669 0.62601957 8.97294721 0.375 5.375 C0.30023438 4.37210938 0.22546875 3.36921875 0.1484375 2.3359375 C0.09945312 1.56507813 0.05046875 0.79421875 0 0 Z " fill="#940413" transform="translate(176,156)"/>
<path d="M0 0 C1.485 0.99 1.485 0.99 3 2 C3.40843923 4.71203652 3.13336867 7.2437142 3 10 C-0.00617269 6.99382731 0.40414684 4.17618402 0 0 Z " fill="#D10C14" transform="translate(163,102)"/>
<path d="M0 0 C0.66 0 1.32 0 2 0 C2.33 2.31 2.66 4.62 3 7 C2.01 7.33 1.02 7.66 0 8 C0 5.36 0 2.72 0 0 Z " fill="#A70109" transform="translate(162,106)"/>
</svg>
